<?xml version="1.0" encoding="UTF-8"?>
          <svg
            class="close"
            fill="#fff"
            viewBox="0 0 24 24"
            xmlns="http://www.w3.org/2000/svg"
          >
            <path
              d="m12 2c-1.9778 0-3.9112 0.58649-5.5557 1.6853-1.6445 1.0988-2.9262 2.6606-3.6831 4.4879-0.75688 1.8272-0.95491 3.8379-0.56906 5.7777s1.3383 3.7216 2.7368 5.1202c1.3985 1.3985 3.1804 2.3509 5.1202 2.7368 1.9398 0.3858 3.9505 0.1878 5.7777-0.5691 1.8273-0.7569 3.3891-2.0386 4.4879-3.6831s1.6853-3.5779 1.6853-5.5557c0-1.3132-0.2587-2.6136-0.7612-3.8268-0.5025-1.2133-1.2391-2.3156-2.1677-3.2442-0.9286-0.92858-2.031-1.6652-3.2443-2.1677-1.2132-0.50254-2.5136-0.7612-3.8268-0.7612zm2.71 11.29c0.0937 0.093 0.1681 0.2036 0.2189 0.3254 0.0508 0.1219 0.0769 0.2526 0.0769 0.3846s-0.0261 0.2627-0.0769 0.3846c-0.0508 0.1218-0.1252 0.2324-0.2189 0.3254-0.093 0.0937-0.2036 0.1681-0.3254 0.2189-0.1219 0.0508-0.2526 0.0769-0.3846 0.0769s-0.2627-0.0261-0.3846-0.0769c-0.1218-0.0508-0.2324-0.1252-0.3254-0.2189l-1.29-1.3-1.29 1.3c-0.093 0.0937-0.2036 0.1681-0.3254 0.2189-0.1219 0.0508-0.2526 0.0769-0.3846 0.0769-0.13201 0-0.26271-0.0261-0.38457-0.0769s-0.23246-0.1252-0.32543-0.2189c-0.09372-0.093-0.16812-0.2036-0.21889-0.3254-0.05077-0.1219-0.0769-0.2526-0.0769-0.3846s0.02613-0.2627 0.0769-0.3846c0.05077-0.1218 0.12517-0.2324 0.21889-0.3254l1.3-1.29-1.3-1.29c-0.1883-0.1883-0.29409-0.4437-0.29409-0.71s0.10579-0.5217 0.29409-0.71c0.18831-0.1883 0.4437-0.29409 0.71-0.29409s0.5217 0.10579 0.71 0.29409l1.29 1.3 1.29-1.3c0.1883-0.1883 0.4437-0.29409 0.71-0.29409s0.5217 0.10579 0.71 0.29409 0.2941 0.4437 0.2941 0.71-0.1058 0.5217-0.2941 0.71l-1.3 1.29 1.3 1.29z"
              fill="#01598b"
            />
          </svg>